<?xml version="1.0" standalone="no"?>
<!DOCTYPE svg PUBLIC "-//W3C//DTD SVG 20010904//EN"
 "http://www.w3.org/TR/2001/REC-SVG-20010904/DTD/svg10.dtd">
<svg version="1.0" xmlns="http://www.w3.org/2000/svg"
 width="467.000000pt" height="187.000000pt" viewBox="0 0 467.000000 187.000000"
 preserveAspectRatio="xMidYMid meet">

<g transform="translate(0.000000,187.000000) scale(0.100000,-0.100000)"
fill="#000000" stroke="none">
<path d="M890 1798 c-74 -44 -135 -101 -468 -432 -418 -416 -417 -415 -393
-498 11 -37 67 -97 389 -420 330 -330 384 -380 437 -404 85 -39 140 -42 207
-12 145 67 196 203 128 346 -24 51 -65 98 -234 270 -124 126 -207 219 -211
235 -4 15 -4 39 0 54 4 17 95 117 239 262 258 262 273 282 264 384 -8 98 -79
198 -167 235 -86 37 -98 36 -191 -20z"/>
<path d="M3645 1836 c-122 -39 -203 -135 -213 -253 -9 -102 6 -122 264 -384
144 -145 235 -245 239 -262 4 -15 4 -39 0 -54 -4 -16 -87 -109 -211 -235 -169
-172 -210 -219 -234 -270 -68 -143 -17 -279 128 -346 67 -30 122 -27 207 12
53 24 107 74 437 404 322 323 378 383 389 420 24 83 25 82 -393 498 -343 341
-392 386 -471 433 -48 28 -91 51 -95 50 -4 0 -25 -6 -47 -13z"/>
<path d="M1506 1383 c-16 -75 -66 -710 -66 -830 l0 -33 95 0 95 0 0 36 c0 84
22 482 29 514 6 32 13 19 107 -200 l101 -235 69 -3 69 -3 100 235 c55 130 103
236 106 236 8 0 17 -145 26 -387 l6 -193 99 0 c97 0 98 0 94 23 -3 12 -8 85
-11 162 -7 162 -30 454 -46 603 l-12 102 -92 0 -92 0 -65 -137 c-36 -76 -89
-193 -118 -260 -29 -68 -55 -123 -59 -123 -3 0 -30 58 -60 128 -30 70 -82 187
-117 260 l-63 132 -95 0 -94 0 -6 -27z"/>
<path d="M2580 1325 l0 -85 200 0 200 0 -75 -96 c-100 -127 -201 -270 -280
-396 -62 -98 -65 -106 -65 -165 l0 -63 350 0 350 0 0 85 0 85 -225 0 c-124 0
-225 2 -225 5 0 24 234 344 352 481 l78 92 0 71 0 71 -330 0 -330 0 0 -85z"/>
</g>
</svg>
